<svg width="360" height="360" viewBox="0 0 360 360" fill="none" xmlns="http://www.w3.org/2000/svg">
<path fill-rule="evenodd" clip-rule="evenodd" d="M316.068 62.473C327.408 66.8357 333.064 79.5653 328.702 90.9053L283.686 207.916C275.452 229.318 245.559 230.357 235.86 209.578L193.047 117.86C187.908 106.85 192.667 93.7586 203.677 88.6194C214.687 83.4801 227.778 88.2392 232.918 99.2491L257.822 152.602L287.636 75.1066C291.999 63.7666 304.728 58.1103 316.068 62.473Z" fill="white"/>
<path fill-rule="evenodd" clip-rule="evenodd" d="M221.142 88.0014C232.466 92.4048 238.077 105.155 233.673 116.479L178.195 259.157C169.469 281.598 137.558 281.146 129.472 258.466L108.909 200.792L72.2145 286.078C67.4124 297.239 54.4717 302.394 43.3107 297.592C32.1496 292.79 26.9947 279.85 31.7968 268.689L86.5967 141.322C95.9339 119.62 127.036 120.613 134.97 142.866L154.693 198.186L192.665 100.533C197.068 89.2087 209.818 83.5981 221.142 88.0014Z" fill="#2D9CDB"/>
<g style="mix-blend-mode:darken">
<path fill-rule="evenodd" clip-rule="evenodd" d="M316.068 62.473C327.408 66.8357 333.064 79.5653 328.702 90.9053L283.686 207.916C275.452 229.318 245.559 230.357 235.86 209.578L193.047 117.86C187.908 106.85 192.667 93.7586 203.677 88.6194C214.687 83.4801 227.778 88.2392 232.918 99.2491L257.822 152.602L287.636 75.1066C291.999 63.7666 304.728 58.1103 316.068 62.473Z" fill="#27AE60"/>
</g>
<circle cx="52.4036" cy="276.19" r="12.7347" fill="#1C628A"/>
<circle cx="110.151" cy="150.67" r="14.3265" fill="#1C628A"/>
<circle cx="153.988" cy="250.126" r="14.3265" fill="#1C628A"/>
<circle cx="213.404" cy="107.741" r="12.7347" fill="#165836"/>
<circle cx="258.995" cy="199.332" r="14.3265" fill="#19703D"/>
<circle cx="308.404" cy="82.7406" r="12.7347" fill="#19703D"/>
</svg>
