<svg width="934" height="248" viewBox="0 0 934 248" fill="none" xmlns="http://www.w3.org/2000/svg">
<path d="M897.772 185V95.5454H922.581V185H897.772ZM910.235 84.0142C906.546 84.0142 903.382 82.7912 900.742 80.3451C898.14 77.8603 896.84 74.8901 896.84 71.4346C896.84 68.018 898.14 65.0866 900.742 62.6406C903.382 60.1558 906.546 58.9133 910.235 58.9133C913.923 58.9133 917.068 60.1558 919.669 62.6406C922.31 65.0866 923.63 68.018 923.63 71.4346C923.63 74.8901 922.31 77.8603 919.669 80.3451C917.068 82.7912 913.923 84.0142 910.235 84.0142Z" fill="#C9C9C9"/>
<path d="M828.147 186.689C822.44 186.689 817.354 185.699 812.889 183.719C808.424 181.7 804.891 178.73 802.29 174.808C799.727 170.848 798.446 165.917 798.446 160.016C798.446 155.046 799.358 150.872 801.183 147.494C803.008 144.116 805.493 141.399 808.638 139.341C811.782 137.283 815.354 135.73 819.353 134.682C823.391 133.633 827.623 132.896 832.049 132.469C837.252 131.925 841.445 131.42 844.629 130.954C847.813 130.45 850.123 129.712 851.559 128.741C852.996 127.771 853.714 126.334 853.714 124.432V124.082C853.714 120.394 852.549 117.54 850.22 115.521C847.929 113.502 844.668 112.493 840.436 112.493C835.971 112.493 832.418 113.483 829.778 115.463C827.138 117.404 825.391 119.85 824.537 122.801L801.591 120.937C802.755 115.502 805.046 110.804 808.463 106.844C811.879 102.845 816.286 99.7774 821.683 97.642C827.119 95.4677 833.408 94.3806 840.552 94.3806C845.522 94.3806 850.278 94.963 854.821 96.1278C859.402 97.2925 863.46 99.0979 866.993 101.544C870.565 103.99 873.379 107.135 875.437 110.979C877.495 114.784 878.524 119.346 878.524 124.665V185H854.995V172.595H854.297C852.86 175.391 850.938 177.856 848.531 179.991C846.124 182.088 843.231 183.738 839.853 184.942C836.476 186.106 832.574 186.689 828.147 186.689ZM835.253 169.567C838.902 169.567 842.125 168.848 844.92 167.412C847.716 165.936 849.909 163.956 851.501 161.472C853.093 158.987 853.889 156.172 853.889 153.027V143.534C853.112 144.039 852.045 144.505 850.686 144.932C849.366 145.32 847.871 145.689 846.201 146.038C844.532 146.349 842.862 146.64 841.193 146.912C839.523 147.145 838.009 147.358 836.65 147.552C833.738 147.98 831.195 148.659 829.021 149.591C826.847 150.523 825.158 151.784 823.954 153.376C822.751 154.929 822.149 156.871 822.149 159.2C822.149 162.578 823.372 165.16 825.818 166.946C828.303 168.693 831.448 169.567 835.253 169.567Z" fill="#C9C9C9"/>
<path d="M768.293 186.514C764.449 186.514 761.149 185.155 758.392 182.438C755.674 179.681 754.315 176.381 754.315 172.537C754.315 168.732 755.674 165.471 758.392 162.753C761.149 160.035 764.449 158.676 768.293 158.676C772.02 158.676 775.281 160.035 778.077 162.753C780.872 165.471 782.27 168.732 782.27 172.537C782.27 175.099 781.61 177.448 780.29 179.584C779.009 181.68 777.32 183.369 775.223 184.651C773.127 185.893 770.816 186.514 768.293 186.514Z" fill="#C9C9C9"/>
<path d="M693.631 186.747C684.585 186.747 676.761 184.825 670.161 180.981C663.599 177.099 658.532 171.702 654.961 164.791C651.389 157.841 649.603 149.785 649.603 140.622C649.603 131.382 651.389 123.306 654.961 116.395C658.532 109.445 663.599 104.048 670.161 100.204C676.761 96.3219 684.585 94.3806 693.631 94.3806C702.677 94.3806 710.481 96.3219 717.043 100.204C723.643 104.048 728.729 109.445 732.301 116.395C735.873 123.306 737.659 131.382 737.659 140.622C737.659 149.785 735.873 157.841 732.301 164.791C728.729 171.702 723.643 177.099 717.043 180.981C710.481 184.825 702.677 186.747 693.631 186.747ZM693.747 167.528C697.863 167.528 701.299 166.364 704.056 164.034C706.812 161.666 708.889 158.443 710.287 154.366C711.724 150.29 712.442 145.65 712.442 140.447C712.442 135.245 711.724 130.605 710.287 126.528C708.889 122.452 706.812 119.229 704.056 116.861C701.299 114.492 697.863 113.308 693.747 113.308C689.593 113.308 686.099 114.492 683.264 116.861C680.469 119.229 678.353 122.452 676.916 126.528C675.519 130.605 674.82 135.245 674.82 140.447C674.82 145.65 675.519 150.29 676.916 154.366C678.353 158.443 680.469 161.666 683.264 164.034C686.099 166.364 689.593 167.528 693.747 167.528Z" fill="#C9C9C9"/>
<path d="M643.4 95.5454L612.126 185H584.171L552.897 95.5454H579.105L597.683 159.55H598.615L617.134 95.5454H643.4Z" fill="#C9C9C9"/>
<path d="M485.995 133.284V185H461.186V95.5454H484.831V111.328H485.879C487.859 106.125 491.179 102.01 495.838 98.9815C500.497 95.9142 506.146 94.3806 512.785 94.3806C518.997 94.3806 524.414 95.7395 529.034 98.4573C533.654 101.175 537.245 105.058 539.808 110.105C542.37 115.114 543.652 121.093 543.652 128.043V185H518.842V132.469C518.881 126.994 517.483 122.723 514.649 119.656C511.815 116.55 507.913 114.997 502.943 114.997C499.604 114.997 496.653 115.715 494.091 117.152C491.567 118.588 489.587 120.685 488.15 123.442C486.753 126.159 486.034 129.44 485.995 133.284Z" fill="#C9C9C9"/>
<path d="M442.972 125.364C442.972 138.37 440.506 149.436 435.575 158.56C430.683 167.684 424.005 174.653 415.541 179.467C407.116 184.243 397.643 186.631 387.121 186.631C376.521 186.631 367.009 184.223 358.584 179.409C350.159 174.595 343.5 167.625 338.608 158.501C333.716 149.377 331.27 138.331 331.27 125.364C331.27 112.357 333.716 101.292 338.608 92.1676C343.5 83.0435 350.159 76.0937 358.584 71.3182C367.009 66.5038 376.521 64.0966 387.121 64.0966C397.643 64.0966 407.116 66.5038 415.541 71.3182C424.005 76.0937 430.683 83.0435 435.575 92.1676C440.506 101.292 442.972 112.357 442.972 125.364ZM417.405 125.364C417.405 116.938 416.143 109.833 413.619 104.048C411.135 98.2632 407.621 93.8759 403.078 90.8863C398.536 87.8968 393.217 86.402 387.121 86.402C381.025 86.402 375.706 87.8968 371.163 90.8863C366.621 93.8759 363.088 98.2632 360.564 104.048C358.079 109.833 356.837 116.938 356.837 125.364C356.837 133.789 358.079 140.894 360.564 146.679C363.088 152.464 366.621 156.851 371.163 159.841C375.706 162.83 381.025 164.325 387.121 164.325C393.217 164.325 398.536 162.83 403.078 159.841C407.621 156.851 411.135 152.464 413.619 146.679C416.143 140.894 417.405 133.789 417.405 125.364Z" fill="#C9C9C9"/>
<path d="M184.314 53.5486L227.126 145.267C228.618 148.463 233.217 148.304 234.484 145.011L279.5 28" stroke="white" stroke-width="44" stroke-linecap="round"/>
<path d="M23.3367 222.378L78.1366 95.0111C79.5731 91.6723 84.358 91.8251 85.5786 95.2486L121.526 196.072C122.77 199.561 127.679 199.631 129.021 196.178L184.5 53.5" stroke="#2D9CDB" stroke-width="44" stroke-linecap="round"/>
<g style="mix-blend-mode:darken">
<path d="M184.314 53.5486L227.126 145.267C228.618 148.463 233.217 148.304 234.484 145.011L279.5 28" stroke="#27AE60" stroke-width="44" stroke-linecap="round"/>
</g>
<circle cx="23.7347" cy="221.184" r="12.7347" fill="#1C628A"/>
<circle cx="81.4816" cy="95.6643" r="14.3265" fill="#1C628A"/>
<circle cx="125.319" cy="195.12" r="14.3265" fill="#1C628A"/>
<circle cx="184.735" cy="52.7347" r="12.7347" fill="#165836"/>
<circle cx="230.327" cy="144.327" r="14.3265" fill="#19703D"/>
<circle cx="279.735" cy="27.7347" r="12.7347" fill="#19703D"/>
</svg>
